<svg width="80" height="16" viewBox="0 0 80 16" fill="none" xmlns="http://www.w3.org/2000/svg">
<path d="M20.9798 6.11166V5.52017C20.9799 4.79522 20.8367 4.07733 20.5583 3.40752C20.2799 2.73772 19.8718 2.12912 19.3572 1.6165C18.8426 1.10387 18.2317 0.697271 17.5594 0.419906C16.8871 0.142542 16.1665 -0.000145264 15.4387 1.10973e-07H5.54108C4.07201 0.0016522 2.66357 0.583771 1.62478 1.61865C0.585982 2.65352 0.00165835 4.05663 0 5.52017V10.4503C0.00165835 11.9138 0.585982 13.3169 1.62478 14.3518C2.66357 15.3867 4.07201 15.9688 5.54108 15.9705H15.4372C16.9069 15.9704 18.3164 15.3888 19.3558 14.3537C20.3952 13.3185 20.9793 11.9144 20.9798 10.4503V9.85877H12.3691V10.4503C12.3703 11.1526 12.1997 11.8447 11.8718 12.4665C11.5441 13.0883 11.069 13.6211 10.4879 14.0187C10.272 13.8699 10.07 13.7021 9.88421 13.5175L9.88401 13.5172C9.1208 12.7611 8.66826 11.7485 8.61502 10.6776C9.27136 9.9331 9.63339 8.97614 9.63339 7.9853C9.63339 6.99447 9.27149 6.03747 8.61516 5.293C8.65002 4.63045 8.83699 3.9847 9.16161 3.40543C9.48631 2.82616 9.94005 2.32881 10.488 1.95167C11.0691 2.34939 11.5443 2.88218 11.8722 3.50395C12.2003 4.12572 12.3713 4.81774 12.3705 5.52016V6.11164L20.9798 6.11166ZM11.9338 14.3539C12.8311 13.4652 13.3932 12.2954 13.5253 11.0418H19.7524C19.6081 12.0799 19.0918 13.0309 18.2987 13.7194C17.5055 14.4078 16.4892 14.7872 15.4372 14.7875H11.4444C11.616 14.6527 11.7794 14.5079 11.9338 14.3539ZM7.75289 6.11136C8.20009 6.63383 8.44576 7.29791 8.44596 7.98457C8.4461 8.67117 8.20069 9.33541 7.75369 9.85804H1.18747V6.11136H7.75289ZM9.04445 14.3539C9.12675 14.4359 9.21184 14.5154 9.29961 14.5925C9.26675 14.6026 9.23395 14.613 9.20082 14.6223C9.16348 14.6329 9.12601 14.6429 9.08847 14.6524C9.02849 14.6676 8.96824 14.6819 8.90766 14.6944C8.86878 14.7025 8.82964 14.7095 8.7905 14.7165C8.73238 14.727 8.67427 14.7372 8.61576 14.7453C8.56519 14.7521 8.5143 14.7571 8.46333 14.7622C8.41564 14.7672 8.36801 14.773 8.32012 14.7763C8.21919 14.7831 8.11773 14.7875 8.01547 14.7875H5.54108C4.48965 14.7861 3.47416 14.4061 2.68174 13.7176C1.88931 13.0292 1.37335 12.0786 1.22893 11.0411H7.45378C7.5855 12.2948 8.14732 13.4649 9.04445 14.3539ZM7.45358 4.92838H1.22904C1.37369 3.89105 1.88973 2.94072 2.68211 2.25247C3.47449 1.56422 4.48982 1.1844 5.54108 1.18299H8.01547C8.11753 1.18299 8.21886 1.18729 8.31959 1.19411C8.36888 1.19754 8.41791 1.2035 8.467 1.20863C8.51617 1.21359 8.56546 1.21833 8.61422 1.22498C8.67507 1.23339 8.73552 1.24393 8.79584 1.2549C8.83191 1.2614 8.86805 1.26779 8.90391 1.27523C8.96791 1.28848 9.03143 1.30346 9.09475 1.3196C9.12768 1.32797 9.16054 1.33677 9.19327 1.34599C9.22868 1.35588 9.26361 1.36707 9.29874 1.37787C8.25974 2.28995 7.60147 3.55668 7.45358 4.92838ZM11.934 1.6165C11.7796 1.46255 11.6162 1.31779 11.4446 1.18299H15.4387C16.4906 1.18285 17.5071 1.56212 18.3 2.25068C19.093 2.93925 19.6089 3.89053 19.7524 4.92867H13.5268C13.3947 3.67479 12.832 2.50482 11.934 1.6165V1.6165Z" fill="#5147DD"/>
<path d="M35.5831 16.0004C34.4967 16.0101 33.4196 15.8 32.417 15.3828C31.4721 14.9949 30.615 14.4222 29.8962 13.6985C29.1774 12.9749 28.6115 12.1149 28.2322 11.1696C27.8302 10.1819 27.6271 9.12507 27.6344 8.0593V8.01519C27.6264 6.95288 27.8296 5.89959 28.2322 4.91592C28.6179 3.97235 29.1816 3.11121 29.8928 2.37914C30.6168 1.64089 31.4829 1.0557 32.4392 0.658616C33.4774 0.229874 34.5923 0.0159807 35.7161 0.0299385C36.3808 0.0246897 37.0446 0.0838112 37.6978 0.206472C38.2556 0.312269 38.8009 0.474873 39.3252 0.691715C39.8016 0.891867 40.2545 1.14338 40.6759 1.44176C41.0858 1.73316 41.471 2.05775 41.8273 2.41225L39.6575 4.90489C39.1029 4.39603 38.4808 3.96553 37.8086 3.62547C37.1494 3.30964 36.4254 3.15106 35.6939 3.16229C35.0724 3.15655 34.4568 3.28443 33.8893 3.5372C33.346 3.77995 32.8596 4.13313 32.4613 4.57411C32.0581 5.02287 31.7427 5.5428 31.5312 6.10708C31.3073 6.70301 31.1947 7.33471 31.1992 7.97107V8.01519C31.1953 8.655 31.3078 9.2903 31.5312 9.89019C31.7397 10.4567 32.0513 10.9802 32.4503 11.4342C32.8558 11.8913 33.3554 12.256 33.9152 12.5034C34.4749 12.7509 35.0816 12.8753 35.694 12.8681C36.4717 12.8922 37.2435 12.7255 37.9415 12.3828C38.6054 12.0224 39.2194 11.5775 39.768 11.0593L41.938 13.243C41.5543 13.6559 41.1398 14.0393 40.6981 14.39C40.2637 14.7322 39.792 15.0244 39.292 15.2615C38.7592 15.5119 38.1979 15.6971 37.6203 15.8128C36.9494 15.944 36.2669 16.0068 35.5831 16.0004Z" fill="#140F37"/>
<path d="M44.1077 0.294922H47.5175V6.40516H53.8059V0.294922H57.2157V15.7358H53.8059V9.53727H47.5175V15.7358H44.1077V0.294922Z" fill="#140F37"/>
<path d="M60.5369 0.294922H63.9469V15.7358H60.5369V0.294922Z" fill="#140F37"/>
<path d="M67.2684 0.29388H73.6007C74.447 0.280671 75.2893 0.411186 76.0915 0.679824C76.7801 0.912574 77.4134 1.28426 77.9517 1.77168C78.4607 2.2428 78.8615 2.81866 79.1253 3.45933C79.4052 4.14929 79.5442 4.88787 79.5348 5.63201V5.67614C79.5522 6.48936 79.3858 7.2961 79.0479 8.0364C78.7359 8.69631 78.2777 9.27704 77.7079 9.73486C77.1175 10.2026 76.4402 10.5509 75.7154 10.7605C74.9212 10.9935 74.0963 11.1087 73.2687 11.1025H70.6777V15.7348H67.2684V0.29388ZM73.3796 8.08052C74.2352 8.08052 74.8998 7.85626 75.3721 7.40769C75.6019 7.19562 75.7836 6.93763 75.9051 6.65058C76.0274 6.36354 76.0875 6.05401 76.0808 5.74234V5.69821C76.1022 5.37025 76.0461 5.04185 75.9171 4.73927C75.7882 4.43669 75.5905 4.16832 75.3387 3.95561C74.7529 3.52996 74.0368 3.31952 73.3128 3.36003H70.6777V8.08052H73.3796Z" fill="#140F37"/>
</svg>
