<svg width="69" height="16" viewBox="0 0 69 16" fill="none" xmlns="http://www.w3.org/2000/svg">
<path d="M18.2006 6.30205V5.78892C18.2007 5.16 18.0765 4.53721 17.835 3.95613C17.5934 3.37506 17.2394 2.84708 16.793 2.40236C16.3466 1.95764 15.8166 1.6049 15.2333 1.36428C14.6501 1.12366 14.0249 0.999874 13.3936 1H4.80706C3.53259 1.00143 2.31073 1.50644 1.40955 2.40423C0.508357 3.30201 0.00143867 4.51926 0 5.78892V10.0659C0.00143867 11.3356 0.508357 12.5528 1.40955 13.4506C2.31073 14.3484 3.53259 14.8534 4.80706 14.8549H13.3923C14.6673 14.8548 15.8901 14.3503 16.7917 13.4522C17.6935 12.5542 18.2002 11.3361 18.2006 10.0659V9.55279H10.7306V10.0659C10.7317 10.6753 10.5836 11.2756 10.2992 11.8151C10.0148 12.3545 9.60273 12.8167 9.09859 13.1616C8.9113 13.0326 8.73607 12.887 8.57486 12.7269L8.57468 12.7266C7.91258 12.0707 7.51998 11.1922 7.4738 10.2631C8.04319 9.61727 8.35727 8.78708 8.35727 7.9275C8.35727 7.06792 8.04331 6.23769 7.47392 5.59184C7.50417 5.01706 7.66636 4.45685 7.94798 3.95432C8.22967 3.45178 8.6233 3.02032 9.09864 2.69313C9.60279 3.03817 10.015 3.50038 10.2995 4.03978C10.5841 4.57919 10.7325 5.17954 10.7318 5.78891V6.30204L18.2006 6.30205ZM10.353 13.4525C11.1314 12.6815 11.619 11.6666 11.7336 10.5791H17.1358C17.0107 11.4797 16.5627 12.3047 15.8747 12.902C15.1866 13.4992 14.3049 13.8284 13.3923 13.8286H9.92833C10.0772 13.7117 10.219 13.5861 10.353 13.4525ZM6.72587 6.3018C7.11383 6.75505 7.32696 7.33116 7.32714 7.92686C7.32725 8.52251 7.11435 9.09876 6.72657 9.55216H1.03016V6.3018H6.72587ZM7.84634 13.4525C7.91773 13.5236 7.99156 13.5926 8.0677 13.6594C8.03919 13.6682 8.01074 13.6772 7.982 13.6853C7.94961 13.6945 7.9171 13.7032 7.88453 13.7115C7.83249 13.7246 7.78023 13.737 7.72767 13.7479C7.69394 13.7549 7.65999 13.761 7.62603 13.767C7.57561 13.7761 7.5252 13.7849 7.47444 13.792C7.43057 13.7979 7.38642 13.8022 7.3422 13.8067C7.30083 13.811 7.25951 13.816 7.21796 13.8189C7.1304 13.8248 7.04238 13.8286 6.95366 13.8286H4.80706C3.89491 13.8274 3.01395 13.4977 2.32649 12.9005C1.63903 12.3032 1.19143 11.4786 1.06614 10.5785H6.46639C6.58066 11.6661 7.06805 12.6812 7.84634 13.4525ZM6.46621 5.27552H1.06623C1.19172 4.3756 1.6394 3.55117 2.32681 2.95409C3.01422 2.35701 3.89506 2.02751 4.80706 2.02628H6.95366C7.04221 2.02628 7.13011 2.03001 7.2175 2.03592C7.26026 2.0389 7.3028 2.04407 7.34539 2.04852C7.38804 2.05283 7.4308 2.05694 7.47311 2.0627C7.5259 2.07 7.57834 2.07915 7.63066 2.08866C7.66196 2.0943 7.69331 2.09985 7.72442 2.1063C7.77994 2.11779 7.83504 2.1308 7.88998 2.14479C7.91855 2.15206 7.94706 2.15969 7.97545 2.16768C8.00616 2.17627 8.03647 2.18598 8.06695 2.19534C7.16558 2.9866 6.59451 4.08553 6.46621 5.27552ZM10.3531 2.40237C10.2192 2.26881 10.0774 2.14322 9.92857 2.02628H13.3936C14.3061 2.02616 15.1879 2.35519 15.8758 2.95253C16.5638 3.54989 17.0114 4.37515 17.1358 5.27577H11.7349C11.6203 4.188 11.1322 3.17301 10.3531 2.40236V2.40237Z" fill="#5147DD"/>
<path d="M30.8695 14.8808C29.927 14.8892 28.9925 14.707 28.1228 14.345C27.3031 14.0085 26.5595 13.5117 25.9359 12.8839C25.3123 12.2561 24.8214 11.5101 24.4923 10.69C24.1436 9.8331 23.9674 8.91625 23.9737 7.99167V7.9534C23.9668 7.03182 24.143 6.11805 24.4923 5.26469C24.8269 4.44611 25.3159 3.69905 25.933 3.06396C26.5611 2.4235 27.3124 1.91583 28.142 1.57134C29.0427 1.1994 30.0099 1.01384 30.9848 1.02595C31.5615 1.02139 32.1373 1.07268 32.7041 1.1791C33.1879 1.27088 33.661 1.41194 34.1159 1.60006C34.5291 1.7737 34.922 1.99189 35.2876 2.25074C35.6433 2.50354 35.9774 2.78514 36.2865 3.09268L34.4041 5.25512C33.923 4.81367 33.3833 4.44019 32.8001 4.14518C32.2283 3.87119 31.6002 3.73362 30.9656 3.74336C30.4264 3.73838 29.8924 3.84932 29.4001 4.06861C28.9287 4.2792 28.5068 4.5856 28.1612 4.96816C27.8114 5.35747 27.5378 5.80852 27.3544 6.29806C27.1601 6.81504 27.0624 7.36306 27.0663 7.91512V7.9534C27.0629 8.50846 27.1605 9.05959 27.3544 9.58002C27.5352 10.0715 27.8055 10.5256 28.1517 10.9195C28.5035 11.316 28.9369 11.6324 29.4225 11.8471C29.9081 12.0618 30.4344 12.1697 30.9656 12.1634C31.6404 12.1843 32.31 12.0398 32.9154 11.7425C33.4914 11.4298 34.024 11.0438 34.5 10.5943L36.3826 12.4887C36.0497 12.8469 35.6901 13.1795 35.3069 13.4837C34.93 13.7806 34.5208 14.0341 34.087 14.2398C33.6248 14.4571 33.1379 14.6177 32.6368 14.7181C32.0548 14.8319 31.4627 14.8864 30.8695 14.8808Z" fill="#140F37"/>
<path d="M38.2648 1.25586H41.2229V6.55668H46.6783V1.25586H49.6364V14.6513H46.6783V9.27388H41.2229V14.6513H38.2648V1.25586Z" fill="#140F37"/>
<path d="M52.5176 1.25586H55.4759V14.6513H52.5176V1.25586Z" fill="#140F37"/>
<path d="M58.3574 1.2547H63.8508C64.585 1.24324 65.3157 1.35646 66.0117 1.58951C66.6091 1.79143 67.1585 2.11388 67.6255 2.53673C68.0671 2.94545 68.4148 3.44502 68.6437 4.00083C68.8865 4.59939 69.007 5.24012 68.9989 5.88569V5.92398C69.0139 6.62947 68.8697 7.32934 68.5764 7.97157C68.3058 8.54407 67.9083 9.04786 67.414 9.44504C66.9018 9.85081 66.3142 10.153 65.6854 10.3348C64.9965 10.5369 64.2808 10.6369 63.5628 10.6315H61.3151V14.6501H58.3574V1.2547ZM63.659 8.00985C64.4013 8.00985 64.9779 7.8153 65.3876 7.42615C65.5869 7.24217 65.7446 7.01836 65.85 6.76933C65.9561 6.52032 66.0082 6.25179 66.0024 5.9814V5.94312C66.021 5.6586 65.9723 5.37371 65.8604 5.11121C65.7486 4.84872 65.5771 4.6159 65.3586 4.43136C64.8504 4.06209 64.2292 3.87953 63.6011 3.91468H61.3151V8.00985H63.659Z" fill="#140F37"/>
</svg>
