<svg width="512" height="512" viewBox="0 0 512 512" fill="none" xmlns="http://www.w3.org/2000/svg">
<rect width="512" height="512" rx="80" fill="url(#paint0_linear_786_3892)"/>
<path d="M406 229.686V221.393C406.002 211.229 403.954 201.164 399.973 191.774C395.992 182.383 390.156 173.851 382.798 166.663C375.44 159.476 366.704 153.776 357.09 149.887C347.476 145.998 337.172 143.998 326.766 144H185.235C164.228 144.023 144.088 152.184 129.233 166.693C114.379 181.202 106.024 200.874 106 221.393V290.514C106.024 311.032 114.379 330.704 129.233 345.213C144.088 359.722 164.228 367.884 185.235 367.907H326.744C347.76 367.906 367.916 359.752 382.778 345.239C397.641 330.726 405.994 311.041 406 290.514V282.221H282.872V290.514C282.89 300.36 280.449 310.063 275.762 318.781C271.074 327.498 264.281 334.968 255.971 340.543C252.885 338.457 249.996 336.105 247.339 333.517L247.337 333.513C236.423 322.913 229.952 308.715 229.19 293.7C238.576 283.263 243.752 269.846 243.753 255.955C243.753 242.063 238.578 228.646 229.192 218.208C229.691 208.919 232.364 199.866 237.007 191.744C241.65 183.623 248.138 176.65 255.972 171.363C264.283 176.939 271.077 184.408 275.767 193.126C280.458 201.843 282.903 211.545 282.892 221.393V229.686H406ZM276.648 345.243C289.478 332.783 297.516 316.382 299.405 298.806H388.45C386.387 313.361 379.003 326.694 367.662 336.347C356.32 345.999 341.787 351.318 326.744 351.321H269.648C272.102 349.432 274.439 347.402 276.648 345.243V345.243ZM216.862 229.682C223.257 237.007 226.77 246.318 226.772 255.944C226.775 265.571 223.265 274.883 216.874 282.211H122.98V229.682H216.862ZM235.331 345.243C236.508 346.393 237.724 347.508 238.98 348.588C238.51 348.73 238.041 348.875 237.567 349.006C237.033 349.154 236.497 349.295 235.96 349.429C235.103 349.641 234.242 349.84 233.375 350.017C232.819 350.13 232.259 350.228 231.699 350.327C230.869 350.473 230.038 350.616 229.2 350.729C228.478 350.826 227.75 350.895 227.022 350.967C226.339 351.036 225.658 351.118 224.973 351.165C223.53 351.261 222.079 351.321 220.617 351.321H185.235C170.2 351.301 155.679 345.974 144.347 336.322C133.016 326.67 125.638 313.343 123.573 298.796H212.585C214.469 316.374 222.502 332.779 235.331 345.243V345.243ZM212.582 213.096H123.575C125.643 198.553 133.022 185.229 144.353 175.58C155.683 165.93 170.202 160.605 185.235 160.585H220.617C222.077 160.585 223.525 160.646 224.966 160.741C225.671 160.789 226.371 160.873 227.074 160.945C227.777 161.014 228.481 161.081 229.18 161.174C230.049 161.292 230.913 161.44 231.776 161.594C232.292 161.685 232.809 161.774 233.322 161.879C234.236 162.064 235.146 162.274 236.05 162.501C236.521 162.618 236.991 162.741 237.459 162.871C237.965 163.009 238.465 163.166 238.967 163.318C224.111 176.105 214.697 193.865 212.582 213.096ZM276.65 166.663C274.442 164.505 272.105 162.475 269.652 160.585H326.766C341.808 160.583 356.342 165.901 367.681 175.555C379.02 185.208 386.398 198.545 388.45 213.1H299.426C297.537 195.521 289.492 179.118 276.65 166.663V166.663Z" fill="white"/>
<defs>
<linearGradient id="paint0_linear_786_3892" x1="256" y1="417" x2="789.443" y2="24.2533" gradientUnits="userSpaceOnUse">
<stop stop-color="#5147DD"/>
<stop offset="1" stop-color="#DD80DD"/>
</linearGradient>
</defs>
</svg>
