<svg width="64" height="56" viewBox="0 0 64 56" fill="none" xmlns="http://www.w3.org/2000/svg">
<rect width="64" height="55.99" rx="8" fill="white"/>
<g clip-path="url(#clip0_787_3896)">
<path d="M19.2395 27.1639V26.7609C19.2396 26.267 19.1424 25.7779 18.9534 25.3216C18.7644 24.8653 18.4874 24.4506 18.1382 24.1014C17.7889 23.7521 17.3743 23.4751 16.918 23.2861C16.4616 23.0972 15.9725 23 15.4786 23.0001H8.76086C7.76376 23.0012 6.80783 23.3978 6.10277 24.1028C5.39772 24.8079 5.00113 25.7638 5 26.7609V30.1198C5.00113 31.1169 5.39772 32.0728 6.10277 32.7779C6.80783 33.4829 7.76376 33.8795 8.76086 33.8806H15.4776C16.4751 33.8806 17.4318 33.4844 18.1372 32.7791C18.8427 32.0739 19.2392 31.1173 19.2395 30.1198V29.7168H13.3952V30.1198C13.396 30.5983 13.2802 31.0698 13.0577 31.4934C12.8352 31.917 12.5128 32.28 12.1184 32.5509C11.9719 32.4495 11.8348 32.3353 11.7086 32.2095L11.7085 32.2093C11.1905 31.6942 10.8833 31.0043 10.8472 30.2746C11.2927 29.7675 11.5384 29.1155 11.5384 28.4404C11.5384 27.7654 11.2928 27.1134 10.8473 26.6062C10.871 26.1548 10.9979 25.7148 11.2182 25.3202C11.4386 24.9255 11.7466 24.5867 12.1184 24.3297C12.5129 24.6007 12.8354 24.9637 13.058 25.3873C13.2806 25.8109 13.3967 26.2824 13.3962 26.7609V27.1639H19.2395ZM13.0998 32.7793C13.7088 32.1738 14.0903 31.3768 14.18 30.5228H18.4064C18.3085 31.23 17.9581 31.878 17.4197 32.347C16.8814 32.816 16.1916 33.0745 15.4776 33.0747H12.7675C12.884 32.9829 12.995 32.8842 13.0998 32.7793V32.7793ZM10.2621 27.1637C10.5656 27.5197 10.7323 27.9721 10.7324 28.4399C10.7326 28.9077 10.566 29.3602 10.2626 29.7163H5.80596V27.1637H10.2621ZM11.1387 32.7793C11.1945 32.8352 11.2523 32.8894 11.3119 32.9419C11.2895 32.9487 11.2673 32.9558 11.2448 32.9622C11.2195 32.9694 11.194 32.9762 11.1685 32.9827C11.1278 32.993 11.087 33.0027 11.0458 33.0113C11.0194 33.0168 10.9929 33.0216 10.9663 33.0264C10.9269 33.0335 10.8874 33.0404 10.8477 33.0459C10.8134 33.0506 10.7788 33.054 10.7443 33.0575C10.7119 33.0608 10.6796 33.0648 10.647 33.0671C10.5785 33.0718 10.5097 33.0747 10.4403 33.0747H8.76086C8.04723 33.0737 7.35799 32.8149 6.82015 32.3458C6.28232 31.8768 5.93212 31.2291 5.83409 30.5223H10.059C10.1484 31.3765 10.5298 32.1736 11.1387 32.7793V32.7793ZM10.0589 26.3577H5.83418C5.93235 25.651 6.2826 25.0036 6.82041 24.5347C7.35821 24.0657 8.04735 23.807 8.76086 23.806H10.4403C10.5096 23.806 10.5783 23.8089 10.6467 23.8136C10.6802 23.8159 10.7134 23.82 10.7467 23.8235C10.7801 23.8269 10.8136 23.8301 10.8467 23.8346C10.888 23.8403 10.929 23.8475 10.9699 23.855C10.9944 23.8594 11.019 23.8638 11.0433 23.8689C11.0867 23.8779 11.1299 23.8881 11.1728 23.8991C11.1952 23.9048 11.2175 23.9108 11.2397 23.9171C11.2637 23.9238 11.2875 23.9314 11.3113 23.9388C10.6061 24.5602 10.1593 25.4232 10.0589 26.3577ZM13.0999 24.1014C12.9951 23.9965 12.8842 23.8979 12.7677 23.806H15.4786C16.1926 23.8059 16.8824 24.0643 17.4207 24.5334C17.9589 25.0025 18.309 25.6507 18.4064 26.3579H14.1809C14.0913 25.5037 13.7094 24.7066 13.0999 24.1014V24.1014Z" fill="#5147DD"/>
<path d="M29.1281 33.8806C28.3907 33.8872 27.6596 33.744 26.9792 33.4598C26.3379 33.1955 25.7561 32.8054 25.2682 32.3123C24.7803 31.8193 24.3963 31.2334 24.1388 30.5894C23.866 29.9165 23.7282 29.1965 23.7331 28.4704V28.4403C23.7277 27.7166 23.8656 26.999 24.1388 26.3288C24.4006 25.6859 24.7832 25.0992 25.2659 24.6005C25.7573 24.0975 26.3451 23.6988 26.9942 23.4283C27.6989 23.1362 28.4556 22.9905 29.2183 23C29.6695 22.9964 30.12 23.0367 30.5634 23.1203C30.9419 23.1923 31.312 23.3031 31.6679 23.4509C31.9912 23.5872 32.2987 23.7586 32.5847 23.9619C32.8629 24.1604 33.1243 24.3815 33.3661 24.623L31.8934 26.3213C31.5171 25.9746 31.0948 25.6813 30.6386 25.4496C30.1911 25.2345 29.6997 25.1264 29.2033 25.1341C28.7814 25.1302 28.3636 25.2173 27.9785 25.3895C27.6097 25.5549 27.2796 25.7955 27.0093 26.0959C26.7356 26.4017 26.5215 26.7559 26.378 27.1403C26.2259 27.5463 26.1496 27.9767 26.1526 28.4102V28.4403C26.15 28.8762 26.2263 29.309 26.378 29.7177C26.5195 30.1037 26.7309 30.4603 27.0017 30.7697C27.277 31.0811 27.6161 31.3296 27.996 31.4981C28.3759 31.6667 28.7877 31.7514 29.2033 31.7466C29.7312 31.763 30.255 31.6495 30.7288 31.416C31.1794 31.1704 31.5961 30.8673 31.9685 30.5142L33.4413 32.002C33.1809 32.2833 32.8996 32.5445 32.5997 32.7834C32.3049 33.0165 31.9848 33.2157 31.6454 33.3771C31.2838 33.5478 30.9028 33.6739 30.5108 33.7528C30.0554 33.8421 29.5921 33.885 29.1281 33.8806V33.8806Z" fill="#140F37"/>
<path d="M34.9141 23.1804H37.2284V27.3433H41.4965V23.1804H43.8108V33.7002H41.4965V29.4772H37.2284V33.7002H34.9141V23.1804Z" fill="#140F37"/>
<path d="M46.0645 23.1804H48.3789V33.7002H46.0645V23.1804Z" fill="#140F37"/>
<path d="M50.6333 23.1804H54.9315C55.5058 23.1714 56.0775 23.2603 56.622 23.4433C57.0895 23.6019 57.5192 23.8551 57.8844 24.1872C58.2302 24.5082 58.5019 24.9005 58.6809 25.337C58.8709 25.8071 58.9655 26.3103 58.959 26.8172V26.8473C58.971 27.4013 58.8579 27.951 58.6283 28.4553C58.4168 28.9049 58.106 29.3006 57.7192 29.6125C57.3181 29.9311 56.8586 30.1685 56.3666 30.3112C55.8275 30.47 55.268 30.5485 54.706 30.5443H52.9476V33.7002H50.6333V23.1804ZM54.7811 28.4854C55.3621 28.4854 55.813 28.3326 56.1337 28.027C56.2894 27.8825 56.4127 27.7067 56.4956 27.5112C56.5785 27.3156 56.619 27.1047 56.6145 26.8924V26.8623C56.629 26.6389 56.5911 26.4152 56.5037 26.209C56.4163 26.0029 56.2819 25.82 56.1112 25.6751C55.7134 25.3851 55.2275 25.2417 54.736 25.2694H52.9476V28.4854H54.7811Z" fill="#140F37"/>
</g>
<defs>
<clipPath id="clip0_787_3896">
<rect width="53.9592" height="10.8806" fill="white" transform="translate(5 23)"/>
</clipPath>
</defs>
</svg>
